<svg t="1714667709474" class="icon" viewBox="0 0 1024 1024" version="1.1" xmlns="http://www.w3.org/2000/svg" p-id="1127" width="200" height="200"><path d="M512 217.6c162.5984 0 294.4 131.8016 294.4 294.4S674.5984 806.4 512 806.4 217.6 674.5984 217.6 512s131.8016-294.4 294.4-294.4z m0 51.2c-134.3104 0-243.2 108.8896-243.2 243.2s108.8896 243.2 243.2 243.2 243.2-108.8896 243.2-243.2-108.8896-243.2-243.2-243.2z m-96.3072 72.32L548.864 475.136a51.2 51.2 0 0 1-0.2432 72.4096c-0.64 0.64-0.64 0.64-1.3056 1.2544l-132.3776 122.496a25.6 25.6 0 0 1-34.7776-37.568l132.3776-122.496L379.392 377.216a25.6 25.6 0 0 1 36.3136-36.096zM665.6 486.4a25.6 25.6 0 1 1 0 51.2 25.6 25.6 0 0 1 0-51.2z" p-id="1128"></path></svg>